<?xml version="1.0" encoding="utf-8"?>
<!-- Generator: Adobe Illustrator 16.0.3, SVG Export Plug-In . SVG Version: 6.00 Build 0)  -->
<!DOCTYPE svg PUBLIC "-//W3C//DTD SVG 1.1//EN" "http://www.w3.org/Graphics/SVG/1.1/DTD/svg11.dtd">
<svg version="1.1" id="Layer_1" xmlns="http://www.w3.org/2000/svg" xmlns:xlink="http://www.w3.org/1999/xlink" x="0px" y="0px"
	 width="512px" height="512px" viewBox="0.5 512.5 512 512" enable-background="new 0.5 512.5 512 512" xml:space="preserve">
<g>
	<path fill="#3D3D3D" d="M99.587,512.61c58.654,0,117.308,0,175.962,0c4.445,17.086,12.722,32.605,19.789,48.623
		c7.447,16.879,19.563,29.884,34.161,40.601c18.221,13.377,35.614,27.615,50.952,44.283c7.724,8.396,15.691,17.65,17.023,28.62
		c2.525,20.815,1.535,41.852-9.974,60.72c-10.116,16.579-22.719,30.039-43.076,33.359c-6.048,0.988-7.004,4.806-6.755,10.051
		c1.183,24.681-4.204,48.659-8.513,72.685c-3.49,19.444-7.874,38.641-10.393,58.344c-2.277,17.803,1.68,34.991,0.651,52.485
		c-0.581,9.925-1.309,19.914-1.786,29.591c-0.174,3.526-0.956,8.458-1.214,10.112c-1.525,9.807-1.52,14.841-4.874,22.417
		c-86.647,0-175.012,0-261.661,0c2.204-4.669,1.689-3.598,2.375-5c8.23-16.845,16.434-33.892,28.947-47.693
		c22.949-25.321,39.089-54.485,52.294-85.444c7.884-18.479,10.929-37.676,8.599-58.413c-2.429-21.626-4.646-43.287-9.214-64.487
		c-5.468-25.384-12.875-50.347-19.332-75.521c-3.655-14.246-4.921-29.562-11.036-42.63c-16.463-35.173-18.819-70.716-9.309-107.902
		C95.315,529.154,100.006,521.507,99.587,512.61z"/>
	<path fill="#A1A1A1" d="M303.544,512.61c2.413,14.309,10.388,26.358,16.153,39.28c7.667,17.189,18.877,31.358,34.229,42.935
		c21.997,16.588,41.304,31.244,56.336,46.926c29.786,31.081,28.713,62.621,11.942,99.114c-9.982,21.718-26.657,35.914-50.183,41.267
		c-2.771,2.056-3.438,3.829-4.313,7.214c-3.418,38.855-9.378,76.589-17.625,114.41c-3.242,14.874-3.759,30.54-4.438,46.052
		c-0.667,15.226-4.552,30.591-5.563,46.1c-0.621,9.549-3.015,18.847-2.548,28.594c-8.665,0-17.328,0-25.995,0
		c2.586-7.46,2.488-10.092,4.134-20.247c0.269-1.652,1.441-8.548,1.651-12.152c0.606-10.415,1.507-19.798,2.088-29.72
		c1.03-17.494-2.927-34.683-0.651-52.486c2.518-19.703,6.903-38.899,10.392-58.343c4.309-24.026,9.697-48.004,8.514-72.686
		c-0.25-5.245,0.707-9.063,6.754-10.05c20.357-3.321,32.96-16.78,43.077-33.36c11.508-18.868,12.499-39.903,9.973-60.719
		c-1.332-10.971-9.298-20.226-17.022-28.621c-15.337-16.668-32.731-30.906-50.952-44.283
		c-14.599-10.716-26.715-23.721-34.161-40.601c-7.066-16.018-15.344-31.538-19.788-48.623
		C284.88,512.61,294.213,512.61,303.544,512.61z"/>
	<path fill="#FFFFFF" d="M331.539,512.61c2.413,14.309,16.069,38.118,23.202,50.52c9.738,16.966,33.268,33.29,48.62,44.867
		c19.488,14.694,31.148,27.938,48.225,45.751c16.996,42.74,13.164,53.154,1.667,91.563c-11.665,20.995-14.414,25.494-32.91,40.24
		c-8.788,4.444-15.524,10.159-18.079,14.247c-18.829,40.659-21.168,74.724-27.328,111.976c-2.813,15.226-4.694,28.242-5.845,43.666
		c-0.667,15.227-5.715,29.614-6.723,45.121c-0.621,9.551-0.917,14.229,0.239,23.94c-8.665,0-17.328,0-25.996,0
		c0.773-8.122,0.459-2.249,1.294-12.672c0.269-1.652,1.495-11.467,1.705-15.071c0.607-10.417,2.669-18.822,3.25-28.745
		c1.03-17.494,1.723-32.187,3.999-49.989c2.518-19.703,8.844-39.528,12.333-58.972c2.413-25.511,4.913-40.008,7.998-65.248
		c0.489-5.688,1.08-11.002,7.163-14.251c20.357-3.32,40.575-25.245,49.41-42.169c7.435-21.354,11.244-30.565,9.537-51.66
		c-2.566-11.335-2.293-12.731-10.541-28.229c-15.337-16.668-25.603-29.115-43.823-42.491c-14.598-10.717-38.825-25.66-48.552-42.531
		c-9.103-15.706-24.266-42.367-26.838-59.863C312.875,512.61,322.208,512.61,331.539,512.61z"/>
</g>
</svg>
